<?xml version="1.0" encoding="UTF-8" standalone="no"?>
<svg
   xmlns:dc="http://purl.org/dc/elements/1.1/"
   xmlns:cc="http://creativecommons.org/ns#"
   xmlns:rdf="http://www.w3.org/1999/02/22-rdf-syntax-ns#"
   xmlns:svg="http://www.w3.org/2000/svg"
   xmlns="http://www.w3.org/2000/svg"
   xmlns:sodipodi="http://sodipodi.sourceforge.net/DTD/sodipodi-0.dtd"
   xmlns:inkscape="http://www.inkscape.org/namespaces/inkscape"
   version="1.1"
   id="Layer_1"
   x="0px"
   y="0px"
   viewBox="0 0 481.321 481.321"
   style="enable-background:new 0 0 481.321 481.321;"
   xml:space="preserve"
   sodipodi:docname="021-winter2.svg"
   inkscape:version="1.0.2 (e86c870879, 2021-01-15, custom)"><metadata
   id="metadata77"><rdf:RDF><cc:Work
       rdf:about=""><dc:format>image/svg+xml</dc:format><dc:type
         rdf:resource="http://purl.org/dc/dcmitype/StillImage" /><dc:title></dc:title></cc:Work></rdf:RDF></metadata><defs
   id="defs75" /><sodipodi:namedview
   pagecolor="#ffffff"
   bordercolor="#666666"
   borderopacity="1"
   objecttolerance="10"
   gridtolerance="10"
   guidetolerance="10"
   inkscape:pageopacity="0"
   inkscape:pageshadow="2"
   inkscape:window-width="1920"
   inkscape:window-height="1027"
   id="namedview73"
   showgrid="false"
   inkscape:zoom="1.7867493"
   inkscape:cx="240.66051"
   inkscape:cy="263.04753"
   inkscape:window-x="-8"
   inkscape:window-y="-8"
   inkscape:window-maximized="1"
   inkscape:current-layer="Layer_1" />
<path
   style="fill:#92c7d3"
   d="M 271.36515,273.72 V 49.648 C 271.36515,22.224 249.13315,0 221.71715,0 v 0 c -27.424,0 -49.648,22.232 -49.648,49.648 v 226.496 c -37.312,20.312 -61.464,61.736 -56.4,108.224 5.456,50.096 46.016,90.736 96.104,96.264 65.888,7.28 121.648,-44.112 121.648,-108.528 0,-43.392 -25.384,-80.776 -62.056,-98.384 z"
   id="path2" />
<g
   id="g12"
   transform="translate(114.33815)">
	<path
   style="fill:#e4f1f4"
   d="m 132.195,304.872 v -89.728 c 0,-13.712 -11.112,-24.824 -24.824,-24.824 v 0 c -13.712,0 -24.824,11.112 -24.824,24.824 v 91.048 c -26.112,10.32 -44.832,35.28 -45.904,64.792 -1.44,39.632 30.8,74.12 70.448,75.232 41.04,1.152 74.664,-31.776 74.664,-72.552 0.008,-32.024 -20.768,-59.16 -49.56,-68.792 z"
   id="path4" />
	<path
   style="fill:#e4f1f4"
   d="m 123.459,71.992 h -32 c -4.416,0 -8,-3.576 -8,-8 0,-4.424 3.584,-8 8,-8 h 32 c 4.416,0 8,3.576 8,8 0,4.424 -3.584,8 -8,8 z"
   id="path6" />
	<path
   style="fill:#e4f1f4"
   d="m 123.459,119.992 h -32 c -4.416,0 -8,-3.576 -8,-8 0,-4.424 3.584,-8 8,-8 h 32 c 4.416,0 8,3.576 8,8 0,4.424 -3.584,8 -8,8 z"
   id="path8" />
	<path
   style="fill:#e4f1f4"
   d="m 123.459,167.992 h -32 c -4.416,0 -8,-3.576 -8,-8 0,-4.424 3.584,-8 8,-8 h 32 c 4.416,0 8,3.576 8,8 0,4.424 -3.584,8 -8,8 z"
   id="path10" />
</g>





<g
   id="g42"
   transform="translate(114.33815)">
</g>
<g
   id="g44"
   transform="translate(114.33815)">
</g>
<g
   id="g46"
   transform="translate(114.33815)">
</g>
<g
   id="g48"
   transform="translate(114.33815)">
</g>
<g
   id="g50"
   transform="translate(114.33815)">
</g>
<g
   id="g52"
   transform="translate(114.33815)">
</g>
<g
   id="g54"
   transform="translate(114.33815)">
</g>
<g
   id="g56"
   transform="translate(114.33815)">
</g>
<g
   id="g58"
   transform="translate(114.33815)">
</g>
<g
   id="g60"
   transform="translate(114.33815)">
</g>
<g
   id="g62"
   transform="translate(114.33815)">
</g>
<g
   id="g64"
   transform="translate(114.33815)">
</g>
<g
   id="g66"
   transform="translate(114.33815)">
</g>
<g
   id="g68"
   transform="translate(114.33815)">
</g>
<g
   id="g70"
   transform="translate(114.33815)">
</g>
</svg>
