<?xml version="1.0" encoding="UTF-8" standalone="no"?>
<svg
   xmlns:dc="http://purl.org/dc/elements/1.1/"
   xmlns:cc="http://creativecommons.org/ns#"
   xmlns:rdf="http://www.w3.org/1999/02/22-rdf-syntax-ns#"
   xmlns:svg="http://www.w3.org/2000/svg"
   xmlns="http://www.w3.org/2000/svg"
   xmlns:sodipodi="http://sodipodi.sourceforge.net/DTD/sodipodi-0.dtd"
   xmlns:inkscape="http://www.inkscape.org/namespaces/inkscape"
   height="463pt"
   viewBox="0 -47 463.84305 463"
   width="463pt"
   version="1.1"
   id="svg8"
   sodipodi:docname="013-storm-2.svg"
   inkscape:version="1.0.2 (e86c870879, 2021-01-15, custom)">
  <metadata
     id="metadata14">
    <rdf:RDF>
      <cc:Work
         rdf:about="">
        <dc:format>image/svg+xml</dc:format>
        <dc:type
           rdf:resource="http://purl.org/dc/dcmitype/StillImage" />
      </cc:Work>
    </rdf:RDF>
  </metadata>
  <defs
     id="defs12" />
  <sodipodi:namedview
     pagecolor="#ffffff"
     bordercolor="#666666"
     borderopacity="1"
     objecttolerance="10"
     gridtolerance="10"
     guidetolerance="10"
     inkscape:pageopacity="0"
     inkscape:pageshadow="2"
     inkscape:window-width="1920"
     inkscape:window-height="1027"
     id="namedview10"
     showgrid="false"
     inkscape:zoom="1.3930886"
     inkscape:cx="170.4845"
     inkscape:cy="308.66667"
     inkscape:window-x="-8"
     inkscape:window-y="-8"
     inkscape:window-maximized="1"
     inkscape:current-layer="svg8" />
  <path
     d="m367.835938 288.960938h8c33.539062.003906 64.164062-19.058594 78.96875-49.15625 14.804687-30.09375 11.214843-65.988282-9.253907-92.554688-20.472656-26.570312-54.265625-39.191406-87.140625-32.546875-4.324218-21.582031-18.304687-39.992187-37.933594-49.957031-19.625-9.964844-42.738281-10.382813-62.714843-1.136719-18.078125-49.796875-73.101563-75.507813-122.898438-57.429687-49.796875 18.082031-75.507812 73.105468-57.429687 122.902343-43.621094 1.375-78.078125 37.480469-77.4257815 81.117188.6562495 43.640625 36.1835935 78.691406 79.8281255 78.761719"
     fill="#a3d4f7"
     id="path2"
     style="fill:#3d3d3b;fill-opacity:0.42971888" />
  <path
     d="m215.835938 160.960938h-64l-32 96h72l-22.59375 112 94.59375-144h-64zm0 0"
     fill="#ffa754"
     id="path4" />
  <path
     d="m327.835938 336.960938c0 17.671874-14.328126 32-32 32-17.675782 0-32-14.328126-32-32 0-24 32-80 32-80s32 56 32 80zm0 0"
     fill="#60a2d7"
     id="path6" />
</svg>
