<?xml version="1.0" encoding="UTF-8" standalone="no"?>
<svg
   xmlns:dc="http://purl.org/dc/elements/1.1/"
   xmlns:cc="http://creativecommons.org/ns#"
   xmlns:rdf="http://www.w3.org/1999/02/22-rdf-syntax-ns#"
   xmlns:svg="http://www.w3.org/2000/svg"
   xmlns="http://www.w3.org/2000/svg"
   xmlns:sodipodi="http://sodipodi.sourceforge.net/DTD/sodipodi-0.dtd"
   xmlns:inkscape="http://www.inkscape.org/namespaces/inkscape"
   version="1.1"
   id="Layer_1"
   x="0px"
   y="0px"
   viewBox="0 0 481.329 481.329"
   style="enable-background:new 0 0 481.329 481.329;"
   xml:space="preserve"
   sodipodi:docname="021-summer2.svg"
   inkscape:version="1.0.2 (e86c870879, 2021-01-15, custom)"><metadata
   id="metadata65"><rdf:RDF><cc:Work
       rdf:about=""><dc:format>image/svg+xml</dc:format><dc:type
         rdf:resource="http://purl.org/dc/dcmitype/StillImage" /><dc:title /></cc:Work></rdf:RDF></metadata><defs
   id="defs63" /><sodipodi:namedview
   pagecolor="#ffffff"
   bordercolor="#666666"
   borderopacity="1"
   objecttolerance="10"
   gridtolerance="10"
   guidetolerance="10"
   inkscape:pageopacity="0"
   inkscape:pageshadow="2"
   inkscape:window-width="1920"
   inkscape:window-height="1027"
   id="namedview61"
   showgrid="false"
   inkscape:zoom="1.2634015"
   inkscape:cx="298.98304"
   inkscape:cy="258.49153"
   inkscape:window-x="-8"
   inkscape:window-y="-8"
   inkscape:window-maximized="1"
   inkscape:current-layer="Layer_1"
   inkscape:document-rotation="0" />
<path
   style="fill:#fcb641;stroke-width:1"
   d="M 275.36704,273.72 V 49.648 C 275.36704,22.232 253.13506,0 225.71908,0 V 0 C 198.2951,0 176.07111,22.232 176.07111,49.648 v 226.496 c -37.30397,20.312 -61.45595,61.736 -56.39196,108.232 5.456,50.096 46.01597,90.736 96.10394,96.264 65.88795,7.28 121.64791,-44.112 121.64791,-108.528 0,-43.4 -25.38398,-80.776 -62.06396,-98.392 z"
   id="path2" />
<g
   id="g12"
   transform="translate(114.24416)">
	<path
   style="fill:#e66032"
   d="M 135.555,302.744 V 216 c 0,-13.256 -10.744,-24 -24,-24 v 0 c -13.256,0 -24,10.744 -24,24 v 88.024 c -25.24,9.976 -43.336,34.112 -44.376,62.64 -1.392,38.312 29.776,71.656 68.104,72.728 39.672,1.112 72.184,-30.72 72.184,-70.144 0,-30.96 -20.08,-57.192 -47.912,-66.504 z"
   id="path4" />
	<path
   style="fill:#e66032"
   d="m 127.563,183.504 c -2.68,0 -5.296,-1.344 -6.808,-3.792 l -8.712,-14.08 -9.888,14.4 c -2.504,3.648 -7.472,4.576 -11.128,2.064 -3.64,-2.496 -4.56,-7.488 -2.064,-11.128 l 16.832,-24.496 c 1.528,-2.224 3.984,-3.544 6.784,-3.472 2.696,0.072 5.184,1.496 6.608,3.792 l 15.168,24.496 c 2.328,3.76 1.168,8.688 -2.592,11.016 -1.312,0.816 -2.76,1.2 -4.2,1.2 z"
   id="path6" />
	<path
   style="fill:#e66032"
   d="m 127.563,135.504 c -2.68,0 -5.296,-1.344 -6.808,-3.792 l -8.712,-14.08 -9.888,14.4 c -2.504,3.648 -7.472,4.576 -11.128,2.064 -3.64,-2.496 -4.56,-7.488 -2.064,-11.128 l 16.832,-24.496 c 1.528,-2.224 3.984,-3.56 6.784,-3.472 2.696,0.072 5.184,1.496 6.608,3.792 l 15.168,24.496 c 2.328,3.76 1.168,8.688 -2.592,11.016 -1.312,0.816 -2.76,1.2 -4.2,1.2 z"
   id="path8" />
	<path
   style="fill:#e66032"
   d="m 127.563,87.504 c -2.68,0 -5.296,-1.344 -6.808,-3.792 l -8.712,-14.08 -9.888,14.4 C 99.651,87.68 94.683,88.6 91.027,86.096 87.387,83.6 86.467,78.608 88.963,74.968 l 16.832,-24.496 c 1.528,-2.224 3.984,-3.4 6.784,-3.472 2.696,0.072 5.184,1.496 6.608,3.792 l 15.168,24.496 c 2.328,3.76 1.168,8.688 -2.592,11.016 -1.312,0.816 -2.76,1.2 -4.2,1.2 z"
   id="path10" />
</g>

<g
   id="g30"
   transform="translate(104.44466)">
</g>
<g
   id="g32"
   transform="translate(104.44466)">
</g>
<g
   id="g34"
   transform="translate(104.44466)">
</g>
<g
   id="g36"
   transform="translate(104.44466)">
</g>
<g
   id="g38"
   transform="translate(104.44466)">
</g>
<g
   id="g40"
   transform="translate(104.44466)">
</g>
<g
   id="g42"
   transform="translate(104.44466)">
</g>
<g
   id="g44"
   transform="translate(104.44466)">
</g>
<g
   id="g46"
   transform="translate(104.44466)">
</g>
<g
   id="g48"
   transform="translate(104.44466)">
</g>
<g
   id="g50"
   transform="translate(104.44466)">
</g>
<g
   id="g52"
   transform="translate(104.44466)">
</g>
<g
   id="g54"
   transform="translate(104.44466)">
</g>
<g
   id="g56"
   transform="translate(104.44466)">
</g>
<g
   id="g58"
   transform="translate(104.44466)">
</g>
</svg>
